<?xml version="1.0" encoding="utf-8"?>
<!-- Generator: Adobe Illustrator 15.0.2, SVG Export Plug-In . SVG Version: 6.00 Build 0)  -->
<!DOCTYPE svg PUBLIC "-//W3C//DTD SVG 1.1//EN" "http://www.w3.org/Graphics/SVG/1.1/DTD/svg11.dtd">
<svg version="1.1" id="Layer_1" xmlns="http://www.w3.org/2000/svg" xmlns:xlink="http://www.w3.org/1999/xlink" x="0px" y="0px"
	 width="612px" height="159px" viewBox="0 0 612 159" enable-background="new 0 0 612 159" xml:space="preserve">
<g>
	<g>
		<rect x="294.236" y="12.03" width="1.043" height="131.315"/>
	</g>
	<g>
		<path d="M321.403,73.579c1.626,2.384,2.402,5.784,2.402,10.396c0,4.61-0.776,8.01-2.402,10.434
			c-1.374,2.034-3.277,3.127-5.501,3.127c-2.3,0-4.178-1.056-5.552-3.127c-1.648-2.46-2.401-5.745-2.401-10.63
			c0-4.416,0.824-7.895,2.401-10.2c1.4-2.071,3.277-3.127,5.526-3.127C318.151,70.452,320.004,71.508,321.403,73.579z
			 M310.127,83.816c0,7.114,2.125,11.256,5.75,11.256c3.578,0,5.751-4.183,5.751-11.099c0-6.879-2.173-11.06-5.751-11.06
			C312.325,72.915,310.127,77.095,310.127,83.816z"/>
		<path d="M335.062,82.646v2.462h-5.424v11.918h-2.003V70.96h8.027v2.462h-6.024v9.224H335.062z"/>
		<path d="M346.166,82.646v2.462h-5.425v11.918h-2V70.96h8.024v2.462h-6.024v9.224H346.166z"/>
		<path d="M351.845,97.027h-2V70.96h2V97.027z"/>
		<path d="M368.676,76.784c-0.975-2.658-2.374-3.869-4.552-3.869c-3.824,0-6.249,4.416-6.249,11.293
			c0,3.282,0.601,6.292,1.598,7.974c1.028,1.756,2.853,2.891,4.651,2.891c1.2,0,2.401-0.509,3.201-1.369
			c0.549-0.585,0.85-1.17,1.351-2.54l1.45,2.188c-0.873,1.644-1.377,2.267-2.3,2.972c-1.051,0.778-2.351,1.211-3.751,1.211
			c-2.149,0-4.303-1.018-5.65-2.697c-1.7-2.15-2.728-6.137-2.728-10.59c0-8.325,3.328-13.797,8.401-13.797
			c1.354,0,2.677,0.43,3.728,1.213c0.901,0.664,1.427,1.328,2.3,2.969L368.676,76.784z"/>
		<path d="M381.108,82.488v2.463h-6.15v9.613h7.051v2.463h-9.054V70.96h8.153v2.462h-6.15v9.065H381.108z"/>
		<path d="M404.32,73.579c1.624,2.384,2.399,5.784,2.399,10.396c0,4.61-0.775,8.01-2.399,10.434
			c-1.376,2.034-3.277,3.127-5.501,3.127c-2.303,0-4.177-1.056-5.551-3.127c-1.655-2.46-2.403-5.745-2.403-10.63
			c0-4.416,0.825-7.895,2.403-10.2c1.398-2.071,3.273-3.127,5.525-3.127C401.069,70.452,402.919,71.508,404.32,73.579z
			 M393.041,83.816c0,7.114,2.125,11.256,5.753,11.256c3.574,0,5.75-4.183,5.75-11.099c0-6.879-2.176-11.06-5.75-11.06
			C395.242,72.915,393.041,77.095,393.041,83.816z"/>
		<path d="M417.977,82.646v2.462h-5.428v11.918h-1.999V70.96h8.027v2.462h-6.028v9.224H417.977z"/>
		<path d="M428.157,70.96h3.902c1.726,0,2.651,0.195,3.348,0.664c1.354,0.898,2.179,3.126,2.179,5.823
			c0,2.111-0.549,4.181-1.45,5.55c-0.549,0.781-1.003,1.173-1.951,1.72l5.226,12.31h-2.425l-4.926-11.918h-1.9v11.918h-2.002V70.96z
			 M431.658,82.646c1.327,0,1.852-0.196,2.503-0.86c0.799-0.82,1.246-2.385,1.246-4.299c0-1.446-0.274-2.58-0.773-3.244
			c-0.498-0.626-1.024-0.86-2.174-0.821h-0.851h-1.45v9.224H431.658z"/>
		<path d="M450.543,82.488v2.463h-6.153v9.613h7.053v2.463h-9.053V70.96h8.153v2.462h-6.153v9.065H450.543z"/>
		<path d="M461.422,76.08c-0.648-2.227-1.476-3.165-2.799-3.165c-1.476,0-2.526,1.68-2.526,3.986c0,2.11,0.575,3.166,2.9,5.236
			c1.702,1.524,2.352,2.229,2.975,3.206c0.753,1.132,1.152,2.733,1.152,4.57c0,4.534-2.102,7.623-5.203,7.623
			c-2.124,0-3.598-1.252-4.677-3.87l1.402-2.542c0.6,2.504,1.824,3.949,3.351,3.949c1.802,0,3.025-1.914,3.025-4.728
			c0-1.369-0.298-2.462-0.949-3.323c-0.501-0.702-0.501-0.702-2.101-2.15c-1.502-1.366-2.403-2.384-2.952-3.399
			c-0.601-1.132-0.95-2.658-0.95-4.182c0-3.908,2.003-6.839,4.627-6.839c1.85,0,3.127,1.094,4.127,3.44L461.422,76.08z"/>
		<path d="M475.055,82.488v2.463h-6.152v9.613h7.053v2.463h-9.053V70.96h8.152v2.462h-6.152v9.065H475.055z"/>
		<path d="M492.138,97.027h-2.152l-2.076-8.443h-6.776l-2.002,8.443h-2.147l6.651-26.066h1.85L492.138,97.027z M484.484,74.79
			l-2.702,11.255h5.479L484.484,74.79z"/>
		<path d="M494.616,70.96h3.9c1.728,0,2.651,0.195,3.351,0.664c1.353,0.898,2.176,3.126,2.176,5.823c0,2.111-0.549,4.181-1.45,5.55
			c-0.549,0.781-1,1.173-1.951,1.72l5.226,12.31h-2.422l-4.929-11.918h-1.9v11.918h-2V70.96z M498.117,82.646
			c1.325,0,1.85-0.196,2.501-0.86c0.802-0.82,1.249-2.385,1.249-4.299c0-1.446-0.274-2.58-0.773-3.244
			c-0.501-0.626-1.027-0.86-2.177-0.821h-0.851h-1.45v9.224H498.117z"/>
		<path d="M520.749,76.784c-0.974-2.658-2.374-3.869-4.551-3.869c-3.824,0-6.249,4.416-6.249,11.293
			c0,3.282,0.601,6.292,1.597,7.974c1.029,1.756,2.853,2.891,4.652,2.891c1.2,0,2.401-0.509,3.2-1.369
			c0.55-0.585,0.85-1.17,1.351-2.54l1.45,2.188c-0.872,1.644-1.376,2.267-2.299,2.972c-1.051,0.778-2.352,1.211-3.751,1.211
			c-2.15,0-4.303-1.018-5.651-2.697c-1.7-2.15-2.728-6.137-2.728-10.59c0-8.325,3.328-13.797,8.401-13.797
			c1.354,0,2.678,0.43,3.729,1.213c0.9,0.664,1.427,1.328,2.299,2.969L520.749,76.784z"/>
		<path d="M537.683,97.027h-2v-12h-8.65v12h-2.001V70.96h2.001v11.606h8.65V70.96h2V97.027z"/>
		<path d="M561.346,83.778c-0.15,3.361-0.575,5.274-1.802,8.088c1.125,1.175,1.502,1.448,3.377,2.27l-1.377,2.891
			c-1.598-1.135-2.051-1.524-3.224-2.891c-2.027,2.616-3.201,3.399-5.002,3.399c-3,0-5.274-3.44-5.274-7.975
			c0-3.165,1.048-5.274,3.349-6.839c-0.95-2.305-1.324-3.868-1.324-5.705c0-3.83,1.85-6.566,4.425-6.566
			c2.099,0,3.55,2.188,3.55,5.355c0,3.322-1.049,5.353-4,7.62c1.201,2.695,2.626,5.082,4.179,6.957
			c0.823-2.071,1.175-3.791,1.175-5.9c0-0.117,0-0.392-0.025-0.705H561.346z M550.918,86.279c-0.6,1.018-0.926,2.267-0.926,3.517
			c0,1.134,0.275,2.229,0.8,3.246c0.727,1.366,1.628,2.031,2.826,2.031c1.3,0,2.252-0.665,3.452-2.463
			c-1.526-1.875-3.525-5.275-4.701-7.854C551.618,85.302,551.268,85.653,550.918,86.279z M553.769,80.926
			c1.75-1.29,2.575-2.892,2.575-4.925c0-1.992-0.773-3.282-2.001-3.282c-1.424,0-2.401,1.758-2.401,4.259
			c0,1.486,0.301,2.737,1.076,4.495C553.52,81.119,553.569,81.083,553.769,80.926z"/>
		<path d="M317.178,120.007v2.463h-6.15v9.613h7.051v2.463h-9.053v-26.067h8.152v2.46h-6.15v9.068H317.178z"/>
		<path d="M333.408,114.303c-0.972-2.659-2.374-3.87-4.549-3.87c-3.827,0-6.252,4.415-6.252,11.294c0,3.283,0.6,6.29,1.6,7.972
			c1.026,1.758,2.851,2.893,4.652,2.893c1.2,0,2.401-0.509,3.2-1.369c0.55-0.585,0.85-1.173,1.349-2.54l1.45,2.188
			c-0.875,1.641-1.374,2.265-2.3,2.969c-1.049,0.781-2.352,1.211-3.751,1.211c-2.15,0-4.3-1.015-5.65-2.694
			c-1.7-2.152-2.726-6.137-2.726-10.593c0-8.322,3.326-13.795,8.401-13.795c1.352,0,2.677,0.43,3.726,1.214
			c0.9,0.661,1.425,1.328,2.3,2.966L333.408,114.303z"/>
		<path d="M350.069,111.097c1.623,2.384,2.398,5.783,2.398,10.396c0,4.611-0.775,8.01-2.398,10.432
			c-1.377,2.033-3.277,3.127-5.501,3.127c-2.304,0-4.178-1.056-5.552-3.127c-1.654-2.46-2.402-5.745-2.402-10.63
			c0-4.415,0.824-7.893,2.402-10.198c1.398-2.071,3.273-3.127,5.525-3.127C346.817,107.97,348.667,109.026,350.069,111.097z
			 M338.79,121.336c0,7.114,2.124,11.256,5.752,11.256c3.576,0,5.75-4.183,5.75-11.099c0-6.88-2.174-11.061-5.75-11.061
			C340.99,110.433,338.79,114.614,338.79,121.336z"/>
		<path d="M369.902,134.546h-1.927l-9.749-21.185v21.185h-1.929v-26.067h1.929l9.749,21.182v-21.182h1.927V134.546z"/>
		<path d="M387.213,111.097c1.622,2.384,2.398,5.783,2.398,10.396c0,4.611-0.776,8.01-2.398,10.432
			c-1.377,2.033-3.278,3.127-5.502,3.127c-2.303,0-4.178-1.056-5.552-3.127c-1.653-2.46-2.402-5.745-2.402-10.63
			c0-4.415,0.825-7.893,2.402-10.198c1.399-2.071,3.274-3.127,5.526-3.127C383.96,107.97,385.811,109.026,387.213,111.097z
			 M375.933,121.336c0,7.114,2.124,11.256,5.753,11.256c3.574,0,5.75-4.183,5.75-11.099c0-6.88-2.176-11.061-5.75-11.061
			C378.133,110.433,375.933,114.614,375.933,121.336z"/>
		<path d="M410.173,134.546h-1.927v-19.424l-5.727,19.424h-1.426l-5.725-19.424v19.424h-1.929v-26.067h2.002l6.377,21.691
			l6.354-21.691h2V134.546z"/>
		<path d="M417.104,134.546h-2v-26.067h2V134.546z"/>
		<path d="M433.932,114.303c-0.972-2.659-2.373-3.87-4.549-3.87c-3.827,0-6.252,4.415-6.252,11.294c0,3.283,0.601,6.29,1.602,7.972
			c1.024,1.758,2.849,2.893,4.65,2.893c1.201,0,2.401-0.509,3.2-1.369c0.551-0.585,0.851-1.173,1.349-2.54l1.451,2.188
			c-0.875,1.641-1.374,2.265-2.301,2.969c-1.048,0.781-2.351,1.211-3.75,1.211c-2.149,0-4.3-1.015-5.651-2.694
			c-1.699-2.152-2.726-6.137-2.726-10.593c0-8.322,3.326-13.795,8.402-13.795c1.351,0,2.677,0.43,3.725,1.214
			c0.901,0.661,1.426,1.328,2.301,2.966L433.932,114.303z"/>
		<path d="M449.919,108.479c2.801,0,4.373,0.585,5.625,2.109c1.675,2.112,2.626,5.903,2.626,10.473c0,5.277-1.3,9.653-3.501,11.765
			c-1.124,1.095-2.85,1.72-4.75,1.72h-5.204v-26.067H449.919z M446.718,132.083h3.3c1.675,0,3.125-0.702,4-1.995
			c1.277-1.836,1.978-4.961,1.978-8.911c0-4.063-0.751-7.229-2.15-8.869c-0.9-1.094-1.651-1.369-3.827-1.369h-3.3V132.083z"/>
		<path d="M470.178,120.007v2.463h-6.15v9.613h7.05v2.463h-9.052v-26.067h8.152v2.46h-6.15v9.068H470.178z"/>
		<path d="M479.383,129.31l5.728-20.831h1.949l-7.176,26.067h-1.377l-6.4-26.067h2.149L479.383,129.31z"/>
		<path d="M497.363,120.007v2.463h-6.149v9.613h7.051v2.463h-9.053v-26.067h8.151v2.46h-6.149v9.068H497.363z"/>
		<path d="M503.695,132.083h6.701v2.463h-8.702v-26.067h2.001V132.083z"/>
		<path d="M525.378,111.097c1.626,2.384,2.401,5.783,2.401,10.396c0,4.611-0.775,8.01-2.401,10.432
			c-1.374,2.033-3.277,3.127-5.501,3.127c-2.3,0-4.178-1.056-5.552-3.127c-1.648-2.46-2.402-5.745-2.402-10.63
			c0-4.415,0.824-7.893,2.402-10.198c1.399-2.071,3.276-3.127,5.526-3.127C522.126,107.97,523.979,109.026,525.378,111.097z
			 M514.101,121.336c0,7.114,2.125,11.256,5.751,11.256c3.578,0,5.75-4.183,5.75-11.099c0-6.88-2.172-11.061-5.75-11.061
			C516.3,110.433,514.101,114.614,514.101,121.336z"/>
		<path d="M531.606,108.479h4.076c1.977,0,2.901,0.351,3.728,1.328c0.975,1.211,1.524,3.165,1.524,5.392
			c0,2.697-0.824,5.084-2.149,6.371c-0.802,0.743-2.275,1.252-3.602,1.252h-1.574v11.725h-2.003V108.479z M535.184,120.359
			c2.351,0,3.578-1.72,3.578-5.002c0-1.72-0.377-3.048-1.028-3.75c-0.447-0.471-0.997-0.667-2-0.667h-2.124v9.419H535.184z"/>
		<path d="M560.592,134.546h-1.923v-19.424l-5.728,19.424h-1.425l-5.728-19.424v19.424h-1.923v-26.067h1.999l6.377,21.691
			l6.351-21.691h1.999V134.546z"/>
		<path d="M573.676,120.007v2.463h-6.15v9.613h7.051v2.463h-9.053v-26.067h8.152v2.46h-6.15v9.068H573.676z"/>
		<path d="M591.608,134.546h-1.923l-9.753-21.185v21.185h-1.927v-26.067h1.927l9.753,21.182v-21.182h1.923V134.546z"/>
		<path d="M600.791,134.546h-2.002v-23.607h-4.824v-2.46h11.727v2.46h-4.9V134.546z"/>
	</g>
	<path fill="#E31837" d="M181.925,103.191l-2.752,0.291v28.454c1.11,0.143,1.85,0.191,3.285,0.191c5.537,0,7.38-2.99,9.515-8.439
		l1.269,0.438l-1.969,10.218c-2.172-0.575-2.461-0.621-4.8-0.621h-13.568v-1.596l2.456-0.333v-28.312l-2.456-0.291v-1.638h9.021
		V103.191L181.925,103.191z"/>
	<path fill="#E31837" d="M198.771,131.793l1.934,0.333v1.596h-7.099v-1.596l2.055-0.333v-14.758v-1.109
		c0-1.109-0.373-1.642-1.112-1.642c-0.326,0-0.609,0.095-0.943,0.196v-1.499l5.165-1.975V131.793L198.771,131.793z M197.175,106.181
		c-1.188,0-2.214-1.104-2.214-2.506c0-1.395,1.026-2.549,2.297-2.549c1.191,0,2.092,1.155,2.092,2.649
		C199.35,105.026,198.322,106.181,197.175,106.181L197.175,106.181z"/>
	<path fill="#E31837" d="M207.263,114.573c1.191-2.026,3.403-3.374,5.454-3.374c4.51,0,5.863,3.903,5.863,8.488v12.106l1.887,0.333
		v1.596h-7.054v-1.596l2.051-0.333v-12.01c0-4.147-1.229-6.32-3.608-6.32c-1.762,0-3.57,1.207-4.593,3.135v15.195l2.051,0.333v1.596
		h-7.217v-1.596l2.048-0.333v-13.648c0-3.043-0.323-3.86-1.472-3.86c-0.125,0-0.331,0-0.576,0.095v-1.639l3.813-1.878
		C206.728,111.97,207.139,113.082,207.263,114.573L207.263,114.573z"/>
	<path fill="#E31837" d="M229.247,134.539c-4.802,0-8.079-4.34-8.079-10.707c0-6.938,4.02-12.584,8.979-12.584
		c2.954,0,5.331,1.689,5.331,3.812c0,1.396-0.9,2.506-2.049,2.506c-1.065,0-2.093-1.109-2.34-2.554
		c-0.324-1.787-0.446-1.929-1.724-1.929c-2.87,0-5.037,3.76-5.037,8.722c0,5.6,2.746,9.791,6.477,9.791
		c1.802,0,2.95-0.913,4.51-3.519l1.028,0.868C234.537,132.61,232.076,134.539,229.247,134.539L229.247,134.539z"/>
	<path fill="#E31837" d="M249.955,122.626c0,6.511-1.684,10.129-4.718,10.129c-3.32,0-4.879-3.231-4.879-10.274
		c0-5.977,1.929-9.638,5.085-9.638C248.19,112.843,249.955,116.598,249.955,122.626L249.955,122.626z M253.684,123.059
		c0-6.654-3.608-11.811-8.241-11.811c-4.801,0-8.814,5.256-8.814,11.523c0,6.56,3.773,11.768,8.572,11.768
		C249.707,134.539,253.684,129.137,253.684,123.059L253.684,123.059z"/>
	<path fill="#E31837" d="M259.034,131.793l2.051,0.333v1.596h-7.218v-1.596l2.05-0.333v-25.851c0-2.167-0.327-2.891-1.271-2.891
		c-0.207,0-0.288,0.051-0.78,0.14v-1.687l5.167-2.356V131.793L259.034,131.793z"/>
	<path fill="#E31837" d="M267.646,114.573c1.188-2.026,3.403-3.374,5.454-3.374c4.51,0,5.862,3.903,5.862,8.488v12.106l1.888,0.333
		v1.596h-7.056v-1.596l2.05-0.333v-12.01c0-4.147-1.23-6.32-3.604-6.32c-1.766,0-3.57,1.207-4.594,3.135v15.195l2.048,0.333v1.596
		h-7.217v-1.596l2.05-0.333v-13.648c0-3.043-0.327-3.86-1.476-3.86c-0.121,0-0.325,0-0.574,0.095v-1.639l3.815-1.878
		C267.113,111.97,267.522,113.082,267.646,114.573L267.646,114.573z"/>
	<path d="M110.039,25.699v9.063c0,2.162,0.083,2.797,0.524,3.528c0.524,0.909,1.49,1.453,2.624,1.453
		c1.301,0,2.373-0.705,2.812-1.841c0.272-0.661,0.336-1.276,0.336-3.14v-9.063h1.682v8.992c0,2.366-0.148,3.303-0.672,4.277
		c-0.8,1.458-2.201,2.211-4.158,2.211c-2.16,0-3.692-0.959-4.384-2.712c-0.337-0.885-0.442-1.705-0.442-3.776v-8.992H110.039
		L110.039,25.699z"/>
	<polygon points="130.86,40.883 129.242,40.883 122.192,28.547 122.192,40.883 120.576,40.883 120.576,25.699 122.192,25.699 
		129.242,38.038 129.242,25.699 130.86,25.699 130.86,40.883 	"/>
	<polygon points="135.64,40.883 133.963,40.883 133.963,25.699 135.64,25.699 135.64,40.883 	"/>
	<polygon points="143.261,37.834 147.582,25.699 149.05,25.699 143.638,40.883 142.587,40.883 137.763,25.699 139.397,25.699 
		143.261,37.834 	"/>
	<polygon points="157.508,32.417 157.508,33.852 153.016,33.852 153.016,39.45 158.182,39.45 158.182,40.883 151.338,40.883 
		151.338,25.699 157.508,25.699 157.508,27.137 153.016,27.137 153.016,32.417 157.508,32.417 	"/>
	<path d="M162.25,32.506v-5.369h1.074h0.671c1.339,0,1.906,0.702,1.906,2.387c0,1.116-0.291,2.003-0.856,2.506
		c-0.423,0.363-0.777,0.476-1.703,0.476H162.25L162.25,32.506z M160.573,40.883h1.677v-6.942h1.407l3.634,6.942h1.778l-3.86-7.171
		c0.715-0.315,1.071-0.543,1.448-1.002c0.674-0.816,1.07-2,1.07-3.23c0-1.528-0.563-2.8-1.509-3.348
		c-0.545-0.315-1.24-0.433-2.561-0.433h-3.084V40.883L160.573,40.883z"/>
	<path d="M176.064,28.686c-0.467-1.3-1.073-1.847-2.02-1.847c-1.068,0-1.828,0.977-1.828,2.321c0,1.231,0.423,1.844,2.125,3.051
		c1.256,0.888,1.742,1.298,2.181,1.865c0.545,0.663,0.842,1.593,0.842,2.664c0,2.641-1.597,4.44-3.928,4.44
		c-1.614,0-2.746-0.73-3.546-2.254l1.051-1.48c0.441,1.457,1.342,2.296,2.457,2.296c1.319,0,2.2-1.113,2.2-2.752
		c0-0.819-0.229-1.434-0.689-1.932c-0.358-0.413-0.378-0.413-1.533-1.253c-2.161-1.548-2.853-2.644-2.853-4.396
		c0-2.298,1.487-4.005,3.483-4.005c1.404,0,2.37,0.636,3.127,2.005L176.064,28.686L176.064,28.686z"/>
	<polygon points="181.705,40.883 180.028,40.883 180.028,25.699 181.705,25.699 181.705,40.883 	"/>
	<polygon points="189.871,40.883 188.19,40.883 188.19,27.137 184.54,27.137 184.54,25.699 193.394,25.699 193.394,27.137 
		189.871,27.137 189.871,40.883 	"/>
	<polygon points="205.213,25.699 201.076,34.143 201.076,40.883 199.396,40.883 199.396,34.143 195.205,25.699 196.943,25.699 
		200.324,32.324 203.64,25.699 205.213,25.699 	"/>
	<path d="M234.152,26.838c2.58,0,4.158,2.436,4.158,6.442c0,4.028-1.578,6.461-4.158,6.461c-2.644,0-4.176-2.41-4.176-6.552
		C229.976,29.274,231.575,26.838,234.152,26.838L234.152,26.838z M234.152,25.404c-3.735,0-6.002,2.936-6.002,7.764
		c0,2.845,0.545,4.733,1.807,6.188c1.05,1.207,2.476,1.823,4.196,1.823c1.7,0,3.149-0.637,4.175-1.823
		c1.22-1.432,1.807-3.368,1.807-6.076C240.134,28.318,237.91,25.404,234.152,25.404L234.152,25.404z"/>
	<polygon points="248.865,32.506 248.865,33.941 244.94,33.941 244.94,40.883 243.259,40.883 243.259,25.699 249.33,25.699 
		249.33,27.137 244.94,27.137 244.94,32.506 248.865,32.506 	"/>
	<path d="M59.572,24.406H41.754v1.973l1.197,0.234c5.484,1.053,6.33,1.216,6.33,7.734c0,0,0,35.927,0,38.858
		c-1.544-2.583-29.231-48.8-29.231-48.8H5.233v2.107l1.4,0.118c5.677,0.474,6.407,0.532,6.407,7.052v48.495
		c0,5.883-0.998,6.025-5.773,6.7L5.229,89.18l0.004,0.376v1.918h20.493V89.18l-2.297-0.351c-4.906-0.712-5.793-0.835-5.793-6.651
		c0,0,0-38.173,0-40.995c1.543,2.435,31.842,50.292,31.842,50.292h4.402V33.969c0-5.768,0.796-5.997,5.229-7.268l0.905-0.261v-2.034
		H59.572L59.572,24.406z"/>
	<path d="M112.33,46.345c-4.656,0-8.119,1.774-11.081,5.656c0-2.459,0-32.344,0-32.344l-0.594,0.221l-12.277,4.57v2.242l0.56-0.157
		c0.965-0.268,1.29-0.268,1.74-0.268c1.938,0,2.625,0.824,2.625,5.445v41.95c0,8.918-0.479,12.208-2.57,17.594l-0.14,0.364
		l2.423,1.3c0,0,4.844-5.756,5.514-6.552c2.688,4.442,6.632,6.722,11.757,6.722c10.199,0,18.19-10.742,18.19-24.462
		C128.479,55.301,121.993,46.345,112.33,46.345L112.33,46.345z M109.454,88.315c-6.364,0-8.205-3.481-8.205-15.512
		c0,0,0-15.049,0-15.396c2.708-3.103,4.91-4.39,7.549-4.39c6.746,0,11.831,8.181,11.831,19.028
		C120.63,81.926,116.245,88.315,109.454,88.315L109.454,88.315z"/>
	<path d="M283.159,84.025l-0.289,0.356c-1.328,1.649-1.852,1.926-2.539,1.926c-1.002,0-1.702-1.692-1.702-4.12V61.777
		c0-5.535-0.916-8.061-3.781-10.403c-7.723-6.33-15.948-6.295-18.639-6.212c-7.994-0.309-27.674,10.865-32.839,23.922
		c0-5.088,0-49.338,0-49.338l-0.593,0.222l-11.816,4.458v2.425l0.563-0.16c0.601-0.177,1.205-0.262,1.798-0.262
		c1.53,0,2.209,0.659,2.209,4.557c0,0,0,56.957,0,57.712c-0.635,0.089-4.571,0.646-4.571,0.646v2.631h16.989v-2.631
		c0,0-3.932-0.555-4.57-0.646c0.01-9.813,0.523-12.361,6.003-20.172c0.625,1.173,10.17,19.121,10.713,20.144
		c-0.929,0.13-4.333,0.613-4.333,0.613v2.692h18.677l0,0c1.544,0.633,3.2,1.01,4.985,1.01c4.899,0,9.487-2.897,12.091-7.476
		c0.42,4.764,2.686,7.476,6.396,7.476c2.104,0,4.941-2.249,7.793-6.165l0.233-0.326L283.159,84.025L283.159,84.025z M247.241,80.966
		c0,2.949,0.972,5.615,2.667,7.689c-0.548-0.066-0.912-0.112-1.099-0.132c-0.208-0.387-14.387-26.116-14.667-26.619
		c2.566-3.39,9.378-8.932,14.565-9.572c1.395-0.171,2.426-0.299,2.666,0.06c0.982,1.477,3.258,1.326,3.258,1.326
		c0.52-0.051,3.29,0.359,5.72-3.563c0.01-0.014,0.12-0.549,1.552-0.557c6.182-0.034,8.549,7.095,8.648,11.78
		C261.706,64.235,247.241,69.016,247.241,80.966L247.241,80.966z M270.569,81.363c-2.622,3.084-5.571,4.865-8.108,4.865
		c-3.944,0-6.807-3.214-6.807-7.635c0-8.194,8.188-10.97,14.763-13.194c0,0,0.104-0.04,0.152-0.057
		C270.569,66.47,270.569,81.03,270.569,81.363L270.569,81.363z"/>
	<path d="M88.354,78.896l-0.275,0.402c-3.464,5.125-6.408,7.117-10.508,7.117c-6.631,0-11.978-5.867-13.419-14.623
		c0.778-0.213,26.818-7.211,26.818-7.211l-0.046-0.377c-1.33-11.182-7.537-17.859-16.602-17.859
		c-10.185,0-18.47,11.231-18.47,25.036c0,12.578,7.961,21.708,18.933,21.708c7.142,0,12.26-3.699,16.098-11.646l0.153-0.308
		L88.354,78.896L88.354,78.896z M74.321,50.55c4.183,0,6.993,3.26,6.993,8.107c0,2.492-0.855,3.979-5.527,5.17
		c0,0-9.606,2.383-12.062,2.995C63.851,56.785,67.874,50.55,74.321,50.55L74.321,50.55z"/>
	<path d="M202.351,64.99c-9.725-4.217-10.512-4.865-10.512-8.708c0-3.005,2.74-5.566,6.21-5.594c0,0,2.85-0.16,3.271,1.216
		c0.098,0.457,1.356,4.328,5.964,3.407c2.068-0.415,2.717-2.295,2.774-3.701c0.111-2.667-3.094-5.357-7.969-5.357
		c-9.844,0-17.263,5.777-17.263,13.445c0,7.167,5.887,9.839,11.583,12.415c4.983,2.261,9.695,4.394,9.695,9.426
		c0,3.946-3.473,7.157-7.736,7.157c-4.335,0-5.784-2.137-6.108-5.348c-0.312-3.127-2.939-3.963-5.089-4.019
		c-2.392-0.065-4.285,1.693-4.464,4.556c-0.035,0.615,0.062,0.669,0.189,1.244c-0.947,1.077-1.421,1.285-1.999,1.285
		c-1.002,0-1.699-1.692-1.699-4.114V63.372h0.017v-1.473c0-5.53-0.921-8.058-3.784-10.404c-4.657-4.24-14.187-7.643-22.069-5.997
		c-4.392,0.921-11.481,6.229-14.791,15.238c-0.253-6.966-0.969-9.786-3.417-14.531l-0.191-0.378l-8.724,4.097v1.757l0.943-0.224
		l0.521-0.083c2.65,0,3.832,3.348,3.832,10.859c0,0,0,25.563,0,26.302c-0.635,0.097-4.643,0.665-4.643,0.665v2.274h17.498V89.2
		c0,0-4.262-0.578-4.909-0.665c0-0.714,0.098-10.192,0.098-10.192c1.149-21.381,5.926-23.606,7.975-24.906
		c1.708-1.084,4.172-1.26,4.401-0.92c0.982,1.476,3.254,1.329,3.254,1.329c0.613-0.063,3.425,0.286,5.721-3.565
		c0.008-0.018,0.121-0.546,1.556-0.56c6.18-0.035,8.548,7.096,8.648,11.782l0.099,0.024c0,0.013,0,0.03,0.003,0.043
		c-8.85,2.855-23.316,7.635-23.316,19.589c0,7.023,4.959,11.928,12.062,11.928c4.907,0,9.494-2.898,12.104-7.47
		c0.414,4.758,2.677,7.47,6.392,7.47c1.748,0,4.009-1.555,6.358-4.335c2.488,2.708,6.982,4.335,12.696,4.335
		c8.846,0,15.771-6.071,15.771-13.829C213.304,73.244,209.208,67.911,202.351,64.99L202.351,64.99z M171.252,81.552
		c-2.625,3.083-5.577,4.862-8.109,4.862c-3.941,0-6.809-3.206-6.809-7.631c0-8.194,8.185-10.964,14.763-13.195
		c0,0,0.103-0.033,0.155-0.053C171.252,66.662,171.252,81.221,171.252,81.552L171.252,81.552z"/>
</g>
</svg>
